<?xml version="1.0" encoding="UTF-8" standalone="no"?>
<!DOCTYPE svg PUBLIC "-//W3C//DTD SVG 1.1//EN" "http://www.w3.org/Graphics/SVG/1.1/DTD/svg11.dtd">
<svg width="100%" height="100%" viewBox="0 0 2000 2000" version="1.1" xmlns="http://www.w3.org/2000/svg" xmlns:xlink="http://www.w3.org/1999/xlink" xml:space="preserve" xmlns:serif="http://www.serif.com/" style="fill-rule:evenodd;clip-rule:evenodd;stroke-linejoin:round;stroke-miterlimit:2;">
    <g transform="matrix(6.029545,0,0,6.029545,-0,68.920017)">
        <g transform="matrix(1,0,0,1,13,0)">
            <path d="M86.1,137C86.4,134.2 83.1,131.5 75.9,128.9C54,121.1 41.1,101.4 36.9,71.6L36.9,71.3L36.7,71.1C35.6,70.2 34.4,69.2 33,70.3C30.2,72.6 24.9,65.1 31.8,94.3L41.5,123.9C42.9,130.5 43.4,135.6 42.6,140.8C41.8,146 39.9,151.4 36.5,158.6L30,171.3C13,205.5 11.4,219.2 13.7,221.5C14.8,222.6 12.7,220.2 14.1,218.8C14.1,218.8 14.3,218.6 14.4,218.6C14.4,218.4 14.6,218.3 14.6,218.3C19.1,207.2 27.1,199.4 32.6,190.6C44.8,171.2 56.3,155.3 73.6,146.9C80,143.8 83.9,141.1 85.5,138.6C85.7,138.2 86.1,137.6 86.1,137" style="fill:#f36a85;fill-rule:nonzero;"/>
        </g>
        <g transform="matrix(1,0,0,1,-5,16)">
            <path d="M237.1,77.5L237.6,77.5C237.8,77.3 237.9,77.3 237.9,77.3C239.6,76.5 241.5,75.6 242.3,74.3C242.6,73.8 242.8,73.4 242.6,72.9C242.3,68.7 227,68.2 186.1,68.8L171.3,69C163.3,69 157.9,68.2 153.3,66.2C148.8,64.3 145,61 140.8,55.9L133.5,46.7C115.2,23.6 108.5,16.1 105.1,18.3C104.6,18.6 104.3,18.9 104.2,19.2C103.6,20.3 103.6,21.7 103.6,22.9L103.6,23.2L103.8,23.4C123.8,43.7 131.1,68.5 124.6,96.7C122.4,105.8 122.6,110.6 124.8,111.9C127.1,113.1 131.8,110.7 139.5,104.1C164.3,83.6 196.3,74.3 237.1,77.5" style="fill:#f36a85;fill-rule:nonzero;"/>
        </g>
        <g transform="matrix(1,0,0,1,-6,-14)">
            <path d="M115.1,229.4L125.3,216.7C131.1,209.7 135.9,205.1 141.2,202C146.5,198.9 152.6,196.8 161.3,195.3L177.1,192.6C221,185.6 237.4,182.1 238.2,177.3C238.5,175.1 235.9,174 233.5,173.4C233.5,173.4 233.3,173.4 233,173.2C232.8,173.2 232.5,173.4 232.5,173.4C188.8,184.5 156,180.3 133.8,162.2C126.9,156.6 122.6,154.9 119.9,156.6C119.4,156.9 118.8,157.5 118.5,158.2C116.9,160.7 116.3,165.5 116.5,173C117.1,193.9 110.7,215.5 97.3,236.9C91.2,246.6 83.9,256.1 75.1,265.3C75.1,265.3 74.9,265.5 74.8,265.6C74.8,265.8 74.6,265.9 74.6,265.9C74,268.1 73.4,270.7 74.9,271.7C78.4,274 88.4,262.7 115.1,229.4" style="fill:#f36a85;fill-rule:nonzero;"/>
        </g>
        <g>
            <path d="M331.1,117.9C331.4,117.6 331.7,117.1 331.7,116.8C331.7,116.3 331.4,116 331.1,115.7C328.1,113.8 263.1,82.9 210.2,85C209.7,85.2 209.4,89.5 209.1,89.8C208.9,90 208.9,90.1 208.9,90.4C208.9,91 209.2,92.5 210,92.5C246.6,89 280.4,113.2 290.6,119.3L292.3,120.2L290.6,121.4C280.1,129.2 244.1,155.1 206.7,164.5C206.1,164.7 205.5,165.3 205.5,165.9C205.5,166.5 226,168.1 227.7,167.1C277.2,150.3 328.3,120.3 331.1,117.9" style="fill:#f36a85;fill-rule:nonzero;"/>
        </g>
        <g>
            <path d="M105.6,43.4C106.1,43.1 111.2,42.5 111.1,42C90.6,18 50.6,0.3 48.7,0C48.5,0 48.2,0 47.9,0.3C47.6,0.5 47.4,0.8 47.4,1.1C46.8,3.3 35.2,59.8 43.3,84.9C43.6,85.2 51.1,83.4 51.5,83.1C52,82.8 51.3,82.2 51.1,81.7C46.7,57 53.8,27.5 55.9,19.2L56.2,17.8L57.3,18.1C64.2,19.7 88.4,27.5 104,44.6C104.5,44.7 105.1,43.7 105.6,43.4" style="fill:#f36a85;fill-rule:nonzero;"/>
        </g>
        <path d="M88.6,240.4C88.821574977837,240.130944669769 82.8,238.2 82.3,237.7C81.8,237.4 81.2,237.5 80.7,238C57.9,263.5 26.8,277.8 18.1,281.6L16.7,282.2L16.7,280.5C17.2,269.9 33.5,220.1 46.3,192C45.5,191.4 65.5,161.8 65,161.6C64.344897087387,161.337958834955 46.1,165.6 45.8,165.9C24.9,202.1 0.2,304.7 0,307.7C0,308 0.2,308.5 0.3,308.6C0.5,308.8 0.8,308.9 1.1,308.8C3.6,307.9 57.8,277.8 88.6,240.4Z" style="fill:#f36a85;fill-rule:nonzero;"/>
        <g>
            <g transform="matrix(1,0,0,1,5,-1)">
                <path d="M36.7,143.5C37,142.9 37.3,142.4 37.3,141.8C37.5,140.9 37,139.8 36.1,138.7C33.9,135.9 29.4,133.9 26.3,134.2C21.3,134.7 16.8,138.9 16,143.7C15.2,148.5 18.7,152.1 23.7,151.8C27.8,151.5 34.5,147.1 36.7,143.5" style="fill:#f36a85;fill-rule:nonzero;"/>
            </g>
            <g transform="matrix(1,0,0,1,-2,6)">
                <path d="M171.3,36.7C166.9,35 160.5,38.1 157.1,43.7C153.8,49 153.2,59.3 156.3,60.6C159.4,61.8 169.6,55.6 172.9,50.1C176.5,44.4 175.7,38.4 171.3,36.7" style="fill:#f36a85;fill-rule:nonzero;"/>
            </g>
            <g transform="matrix(1,0,0,1,-4,-6)">
                <path d="M142.1,227.9C143.7,231.2 146.3,233.7 149.3,234.6C151.8,235.4 154.5,235.1 156.6,233.8C158.8,232.6 160.7,230.2 161.4,227.6C162.5,224.2 162.3,220.3 160.8,217C158,211.1 148,205.6 144.4,207.6C143.9,207.9 143.5,208.4 143,209.2C142.5,209.8 142.2,210.8 141.9,211.7C140.4,216.5 140.4,224 142.1,227.9" style="fill:#f36a85;fill-rule:nonzero;"/>
            </g>
        </g>
    </g>
</svg>
