<?xml version="1.0" encoding="UTF-8" standalone="no"?>
<!DOCTYPE svg PUBLIC "-//W3C//DTD SVG 1.1//EN" "http://www.w3.org/Graphics/SVG/1.1/DTD/svg11.dtd">
<svg width="100%" height="100%" viewBox="0 0 938 309" version="1.1" xmlns="http://www.w3.org/2000/svg" xmlns:xlink="http://www.w3.org/1999/xlink" xml:space="preserve" xmlns:serif="http://www.serif.com/" style="fill-rule:evenodd;clip-rule:evenodd;stroke-linejoin:round;stroke-miterlimit:2;">
    <g>
        <g transform="matrix(1,0,0,1,13,0)">
            <path d="M86.1,137C86.4,134.2 83.1,131.5 75.9,128.9C54,121.1 41.1,101.4 36.9,71.6L36.9,71.3L36.7,71.1C35.6,70.2 34.4,69.2 33,70.3C30.2,72.6 24.9,65.1 31.8,94.3L41.5,123.9C42.9,130.5 43.4,135.6 42.6,140.8C41.8,146 39.9,151.4 36.5,158.6L30,171.3C13,205.5 11.4,219.2 13.7,221.5C14.8,222.6 12.7,220.2 14.1,218.8C14.1,218.8 14.3,218.6 14.4,218.6C14.4,218.4 14.6,218.3 14.6,218.3C19.1,207.2 27.1,199.4 32.6,190.6C44.8,171.2 56.3,155.3 73.6,146.9C80,143.8 83.9,141.1 85.5,138.6C85.7,138.2 86.1,137.6 86.1,137" style="fill:rgb(243,106,133);fill-rule:nonzero;"/>
        </g>
        <g transform="matrix(1,0,0,1,-5,16)">
            <path d="M237.1,77.5L237.6,77.5C237.8,77.3 237.9,77.3 237.9,77.3C239.6,76.5 241.5,75.6 242.3,74.3C242.6,73.8 242.8,73.4 242.6,72.9C242.3,68.7 227,68.2 186.1,68.8L171.3,69C163.3,69 157.9,68.2 153.3,66.2C148.8,64.3 145,61 140.8,55.9L133.5,46.7C115.2,23.6 108.5,16.1 105.1,18.3C104.6,18.6 104.3,18.9 104.2,19.2C103.6,20.3 103.6,21.7 103.6,22.9L103.6,23.2L103.8,23.4C123.8,43.7 131.1,68.5 124.6,96.7C122.4,105.8 122.6,110.6 124.8,111.9C127.1,113.1 131.8,110.7 139.5,104.1C164.3,83.6 196.3,74.3 237.1,77.5" style="fill:rgb(243,106,133);fill-rule:nonzero;"/>
        </g>
        <g transform="matrix(1,0,0,1,-6,-14)">
            <path d="M115.1,229.4L125.3,216.7C131.1,209.7 135.9,205.1 141.2,202C146.5,198.9 152.6,196.8 161.3,195.3L177.1,192.6C221,185.6 237.4,182.1 238.2,177.3C238.5,175.1 235.9,174 233.5,173.4C233.5,173.4 233.3,173.4 233,173.2C232.8,173.2 232.5,173.4 232.5,173.4C188.8,184.5 156,180.3 133.8,162.2C126.9,156.6 122.6,154.9 119.9,156.6C119.4,156.9 118.8,157.5 118.5,158.2C116.9,160.7 116.3,165.5 116.5,173C117.1,193.9 110.7,215.5 97.3,236.9C91.2,246.6 83.9,256.1 75.1,265.3C75.1,265.3 74.9,265.5 74.8,265.6C74.8,265.8 74.6,265.9 74.6,265.9C74,268.1 73.4,270.7 74.9,271.7C78.4,274 88.4,262.7 115.1,229.4" style="fill:rgb(243,106,133);fill-rule:nonzero;"/>
        </g>
        <g>
            <path d="M331.1,117.9C331.4,117.6 331.7,117.1 331.7,116.8C331.7,116.3 331.4,116 331.1,115.7C328.1,113.8 263.1,82.9 210.2,85C209.7,85.2 209.4,89.5 209.1,89.8C208.9,90 208.9,90.1 208.9,90.4C208.9,91 209.2,92.5 210,92.5C246.6,89 280.4,113.2 290.6,119.3L292.3,120.2L290.6,121.4C280.1,129.2 244.1,155.1 206.7,164.5C206.1,164.7 205.5,165.3 205.5,165.9C205.5,166.5 226,168.1 227.7,167.1C277.2,150.3 328.3,120.3 331.1,117.9" style="fill:rgb(243,106,133);fill-rule:nonzero;"/>
        </g>
        <g>
            <path d="M105.6,43.4C106.1,43.1 111.2,42.5 111.1,42C90.6,18 50.6,0.3 48.7,0C48.5,0 48.2,0 47.9,0.3C47.6,0.5 47.4,0.8 47.4,1.1C46.8,3.3 35.2,59.8 43.3,84.9C43.6,85.2 51.1,83.4 51.5,83.1C52,82.8 51.3,82.2 51.1,81.7C46.7,57 53.8,27.5 55.9,19.2L56.2,17.8L57.3,18.1C64.2,19.7 88.4,27.5 104,44.6C104.5,44.7 105.1,43.7 105.6,43.4" style="fill:rgb(243,106,133);fill-rule:nonzero;"/>
        </g>
        <path d="M88.6,240.4C88.821574977837,240.130944669769 82.8,238.2 82.3,237.7C81.8,237.4 81.2,237.5 80.7,238C57.9,263.5 26.8,277.8 18.1,281.6L16.7,282.2L16.7,280.5C17.2,269.9 33.5,220.1 46.3,192C45.5,191.4 65.5,161.8 65,161.6C64.344897087387,161.337958834955 46.1,165.6 45.8,165.9C24.9,202.1 0.2,304.7 0,307.7C0,308 0.2,308.5 0.3,308.6C0.5,308.8 0.8,308.9 1.1,308.8C3.6,307.9 57.8,277.8 88.6,240.4Z" style="fill:rgb(243,106,133);fill-rule:nonzero;"/>
        <g>
            <g transform="matrix(1,0,0,1,5,-1)">
                <path d="M36.7,143.5C37,142.9 37.3,142.4 37.3,141.8C37.5,140.9 37,139.8 36.1,138.7C33.9,135.9 29.4,133.9 26.3,134.2C21.3,134.7 16.8,138.9 16,143.7C15.2,148.5 18.7,152.1 23.7,151.8C27.8,151.5 34.5,147.1 36.7,143.5" style="fill:rgb(243,106,133);fill-rule:nonzero;"/>
            </g>
            <g transform="matrix(1,0,0,1,-2,6)">
                <path d="M171.3,36.7C166.9,35 160.5,38.1 157.1,43.7C153.8,49 153.2,59.3 156.3,60.6C159.4,61.8 169.6,55.6 172.9,50.1C176.5,44.4 175.7,38.4 171.3,36.7" style="fill:rgb(243,106,133);fill-rule:nonzero;"/>
            </g>
            <g transform="matrix(1,0,0,1,-4,-6)">
                <path d="M142.1,227.9C143.7,231.2 146.3,233.7 149.3,234.6C151.8,235.4 154.5,235.1 156.6,233.8C158.8,232.6 160.7,230.2 161.4,227.6C162.5,224.2 162.3,220.3 160.8,217C158,211.1 148,205.6 144.4,207.6C143.9,207.9 143.5,208.4 143,209.2C142.5,209.8 142.2,210.8 141.9,211.7C140.4,216.5 140.4,224 142.1,227.9" style="fill:rgb(243,106,133);fill-rule:nonzero;"/>
            </g>
        </g>
    </g>
    <g transform="matrix(1.042402,0,0,1.042402,-27.361057,46.638499)">
        <g transform="matrix(2.303619,0,0,2.303619,-504.337961,-7.044714)">
            <g transform="matrix(62.292135,0,0,62.292135,375.134253,47.375269)">
                <path d="M0.292,0.375C0.222,0.375 0.165166666667,0.3625 0.1215,0.3375C0.077833333333,0.3125 0.046,0.279333333333 0.026,0.238C0.006,0.196666666667 -0.003666666667,0.151666666667 -0.003,0.103C-0.017,0.088333333333 -0.028,0.071833333333 -0.036,0.0535C-0.044,0.035166666667 -0.048,0.014666666667 -0.048,-0.008C-0.048,-0.030666666667 -0.043666666667,-0.054666666667 -0.035,-0.08C-0.033666666667,-0.083333333333 -0.031666666667,-0.085 -0.029,-0.085C-0.026333333333,-0.085 -0.024,-0.084166666667 -0.022,-0.0825C-0.02,-0.080833333333 -0.019666666667,-0.078333333333 -0.021,-0.075C-0.025,-0.064333333333 -0.027833333333,-0.053666666667 -0.0295,-0.043C-0.031166666667,-0.032333333333 -0.032,-0.022 -0.032,-0.012C-0.032,0.021333333333 -0.022,0.050666666667 -0.002,0.076C0.002,0.034 0.012833333333,-0.0085 0.0305,-0.0515C0.048166666667,-0.0945 0.071666666667,-0.135666666667 0.101,-0.175C0.130333333333,-0.214333333333 0.165,-0.249 0.205,-0.279C0.151666666667,-0.294333333333 0.107166666667,-0.314666666667 0.0715,-0.34C0.035833333333,-0.365333333333 0.009166666667,-0.393166666667 -0.0085,-0.4235C-0.026166666667,-0.453833333333 -0.035,-0.483333333333 -0.035,-0.512C-0.035,-0.551333333333 -0.0185,-0.585333333333 0.0145,-0.614C0.0475,-0.642666666667 0.097,-0.657 0.163,-0.657C0.202333333333,-0.657 0.247,-0.650666666667 0.297,-0.638C0.319,-0.632 0.341,-0.625333333333 0.363,-0.618C0.385,-0.610666666667 0.406333333333,-0.602333333333 0.427,-0.593C0.455666666667,-0.618333333333 0.487333333333,-0.6425 0.522,-0.6655C0.556666666667,-0.6885 0.594333333333,-0.709666666667 0.635,-0.729C0.677666666667,-0.749666666667 0.717333333333,-0.764666666667 0.754,-0.774C0.790666666667,-0.783333333333 0.824333333333,-0.788 0.855,-0.788C0.912333333333,-0.788 0.956666666667,-0.773833333333 0.988,-0.7455C1.019333333333,-0.717166666667 1.035,-0.681333333333 1.035,-0.638C1.035,-0.607333333333 1.0265,-0.574 1.0095,-0.538C0.9925,-0.502 0.965666666667,-0.465666666667 0.929,-0.429C0.895666666667,-0.395666666667 0.860333333333,-0.367666666667 0.823,-0.345C0.785666666667,-0.322333333333 0.747333333333,-0.304 0.708,-0.29C0.729333333333,-0.258666666667 0.74,-0.223 0.74,-0.183C0.74,-0.173 0.739333333333,-0.163 0.738,-0.153C0.736666666667,-0.143 0.734666666667,-0.132666666667 0.732,-0.122C0.762,-0.146 0.790833333333,-0.172166666667 0.8185,-0.2005C0.846166666667,-0.228833333333 0.870666666667,-0.259 0.892,-0.291C0.902,-0.305666666667 0.911166666667,-0.320166666667 0.9195,-0.3345C0.927833333333,-0.348833333333 0.936333333333,-0.362333333333 0.945,-0.375C0.951,-0.386333333333 0.9565,-0.397666666667 0.9615,-0.409C0.9665,-0.420333333333 0.971333333333,-0.431333333333 0.976,-0.442C0.978,-0.448 0.980333333333,-0.451 0.983,-0.451C0.985,-0.451 0.986333333333,-0.449666666667 0.987,-0.447C0.987666666667,-0.444333333333 0.987333333333,-0.441333333333 0.986,-0.438L0.983,-0.431C1.026333333333,-0.491 1.068,-0.537666666667 1.108,-0.571C1.148,-0.604333333333 1.186333333333,-0.621 1.223,-0.621C1.233666666667,-0.621 1.243333333333,-0.619666666667 1.252,-0.617C1.254,-0.616333333333 1.255,-0.615 1.255,-0.613C1.255,-0.607666666667 1.252666666667,-0.605666666667 1.248,-0.607C1.242,-0.609 1.235666666667,-0.61 1.229,-0.61C1.204333333333,-0.61 1.178,-0.598166666667 1.15,-0.5745C1.122,-0.550833333333 1.093166666667,-0.518 1.0635,-0.476C1.033833333333,-0.434 1.0045,-0.385666666667 0.9755,-0.331C0.9465,-0.276333333333 0.918333333333,-0.218 0.891,-0.156C0.862333333333,-0.09 0.8285,-0.0255 0.7895,0.0375C0.7505,0.1005 0.706166666667,0.1575 0.6565,0.2085C0.606833333333,0.2595 0.551666666667,0.3 0.491,0.33C0.430333333333,0.36 0.364,0.375 0.292,0.375ZM0.696,-0.306C0.737333333333,-0.32 0.777166666667,-0.3385 0.8155,-0.3615C0.853833333333,-0.3845 0.890333333333,-0.413 0.925,-0.447C0.955,-0.477 0.977166666667,-0.508 0.9915,-0.54C1.005833333333,-0.572 1.013,-0.602333333333 1.013,-0.631C1.013,-0.671 0.9995,-0.704666666667 0.9725,-0.732C0.9455,-0.759333333333 0.907,-0.773 0.857,-0.773C0.827,-0.773 0.793333333333,-0.767166666667 0.756,-0.7555C0.718666666667,-0.743833333333 0.677666666667,-0.724666666667 0.633,-0.698C0.603666666667,-0.680666666667 0.575833333333,-0.661166666667 0.5495,-0.6395C0.523166666667,-0.617833333333 0.498333333333,-0.594666666667 0.475,-0.57C0.516333333333,-0.549333333333 0.552333333333,-0.527333333333 0.583,-0.504C0.613666666667,-0.480666666667 0.634,-0.458666666667 0.644,-0.438C0.645333333333,-0.436 0.646,-0.434333333333 0.646,-0.433L0.646,-0.429C0.646,-0.423666666667 0.644,-0.421 0.64,-0.421C0.636,-0.421 0.632333333333,-0.423666666667 0.629,-0.429C0.619,-0.449666666667 0.599,-0.471166666667 0.569,-0.4935C0.539,-0.515833333333 0.503666666667,-0.537 0.463,-0.557C0.433666666667,-0.524333333333 0.407833333333,-0.490166666667 0.3855,-0.4545C0.363166666667,-0.418833333333 0.345,-0.383333333333 0.331,-0.348C0.356333333333,-0.357333333333 0.383166666667,-0.364666666667 0.4115,-0.37C0.439833333333,-0.375333333333 0.469,-0.378 0.499,-0.378C0.546333333333,-0.378 0.586166666667,-0.371333333333 0.6185,-0.358C0.650833333333,-0.344666666667 0.676666666667,-0.327333333333 0.696,-0.306ZM0.232,-0.3C0.245333333333,-0.346 0.267,-0.393 0.297,-0.441C0.327,-0.489 0.365666666667,-0.535333333333 0.413,-0.58C0.393666666667,-0.588 0.373833333333,-0.5955 0.3535,-0.6025C0.333166666667,-0.6095 0.313,-0.615333333333 0.293,-0.62C0.266333333333,-0.627333333333 0.241666666667,-0.6325 0.219,-0.6355C0.196333333333,-0.6385 0.175333333333,-0.64 0.156,-0.64C0.100666666667,-0.64 0.0595,-0.628833333333 0.0325,-0.6065C0.0055,-0.584166666667 -0.008,-0.557333333333 -0.008,-0.526C-0.008,-0.499333333333 0.001166666667,-0.4715 0.0195,-0.4425C0.037833333333,-0.4135 0.064833333333,-0.3865 0.1005,-0.3615C0.136166666667,-0.3365 0.18,-0.316 0.232,-0.3ZM0.462,-0.269C0.497333333333,-0.269 0.5325,-0.271333333333 0.5675,-0.276C0.6025,-0.280666666667 0.637333333333,-0.288 0.672,-0.298C0.655333333333,-0.317333333333 0.632666666667,-0.333 0.604,-0.345C0.575333333333,-0.357 0.540333333333,-0.363 0.499,-0.363C0.467,-0.363 0.436333333333,-0.359666666667 0.407,-0.353C0.377666666667,-0.346333333333 0.349666666667,-0.337333333333 0.323,-0.326C0.320333333333,-0.318666666667 0.317833333333,-0.311333333333 0.3155,-0.304C0.313166666667,-0.296666666667 0.311333333333,-0.289333333333 0.31,-0.282C0.334666666667,-0.278 0.359666666667,-0.274833333333 0.385,-0.2725C0.410333333333,-0.270166666667 0.436,-0.269 0.462,-0.269ZM0.46,-0.006C0.504,-0.006 0.550666666667,-0.017333333333 0.6,-0.04C0.616666666667,-0.047333333333 0.633,-0.055833333333 0.649,-0.0655C0.665,-0.075166666667 0.681,-0.085333333333 0.697,-0.096C0.707,-0.125333333333 0.712,-0.154 0.712,-0.182C0.712,-0.22 0.702666666667,-0.253333333333 0.684,-0.282C0.646,-0.270666666667 0.6075,-0.2625 0.5685,-0.2575C0.5295,-0.2525 0.490333333333,-0.25 0.451,-0.25C0.401666666667,-0.25 0.353,-0.253 0.305,-0.259C0.302333333333,-0.247 0.300333333333,-0.235333333333 0.299,-0.224C0.297666666667,-0.212666666667 0.297,-0.201333333333 0.297,-0.19C0.297,-0.125333333333 0.3125,-0.0785 0.3435,-0.0495C0.3745,-0.0205 0.413333333333,-0.006 0.46,-0.006ZM0.263,0.172C0.330333333333,0.172 0.394333333333,0.161333333333 0.455,0.14C0.511,0.12 0.558833333333,0.091 0.5985,0.053C0.638166666667,0.015 0.667333333333,-0.025666666667 0.686,-0.069C0.661333333333,-0.052333333333 0.635333333333,-0.037333333333 0.608,-0.024C0.540666666667,0.008 0.477666666667,0.024 0.419,0.024C0.381,0.024 0.346666666667,0.0165 0.316,0.0015C0.285333333333,-0.0135 0.261166666667,-0.037 0.2435,-0.069C0.225833333333,-0.101 0.217,-0.142333333333 0.217,-0.193C0.217,-0.205 0.217666666667,-0.217166666667 0.219,-0.2295C0.220333333333,-0.241833333333 0.222333333333,-0.254333333333 0.225,-0.267C0.184333333333,-0.235666666667 0.149166666667,-0.1995 0.1195,-0.1585C0.089833333333,-0.1175 0.066833333333,-0.0745 0.0505,-0.0295C0.034166666667,0.0155 0.025333333333,0.059666666667 0.024,0.103C0.051333333333,0.125666666667 0.086333333333,0.142833333333 0.129,0.1545C0.171666666667,0.166166666667 0.216333333333,0.172 0.263,0.172ZM0.293,0.363C0.337666666667,0.363 0.379666666667,0.353833333333 0.419,0.3355C0.458333333333,0.317166666667 0.495333333333,0.2925 0.53,0.2615C0.564666666667,0.2305 0.597,0.195333333333 0.627,0.156C0.657,0.116666666667 0.684833333333,0.075833333333 0.7105,0.0335C0.736166666667,-0.008833333333 0.76,-0.0505 0.782,-0.0915C0.804,-0.1325 0.824,-0.169666666667 0.842,-0.203L0.849,-0.216C0.811,-0.171333333333 0.769333333333,-0.131333333333 0.724,-0.096C0.712666666667,-0.062666666667 0.695,-0.029833333333 0.671,0.0025C0.647,0.034833333333 0.617333333333,0.064166666667 0.582,0.0905C0.546666666667,0.116833333333 0.506,0.138 0.46,0.154C0.429333333333,0.164666666667 0.396833333333,0.172833333333 0.3625,0.1785C0.328166666667,0.184166666667 0.294,0.187 0.26,0.187C0.214666666667,0.187 0.171333333333,0.182 0.13,0.172C0.088666666667,0.162 0.053333333333,0.146666666667 0.024,0.126C0.025333333333,0.169333333333 0.035666666667,0.209 0.055,0.245C0.074333333333,0.281 0.103666666667,0.309666666667 0.143,0.331C0.182333333333,0.352333333333 0.232333333333,0.363 0.293,0.363Z" style="fill:rgb(243,106,133);fill-rule:nonzero;"/>
            </g>
            <g transform="matrix(62.292135,0,0,62.292135,434.498658,47.375269)">
                <path d="M0.131,0.005C0.103,0.005 0.089,-0.010666666667 0.089,-0.042C0.089,-0.054 0.091333333333,-0.068333333333 0.096,-0.085C0.100666666667,-0.101666666667 0.108,-0.12 0.118,-0.14C0.123333333333,-0.152 0.130666666667,-0.1665 0.14,-0.1835C0.149333333333,-0.2005 0.157833333333,-0.217333333333 0.1655,-0.234C0.173166666667,-0.250666666667 0.177,-0.264 0.177,-0.274C0.177,-0.284 0.171666666667,-0.289 0.161,-0.289C0.156333333333,-0.289 0.150333333333,-0.287833333333 0.143,-0.2855C0.135666666667,-0.283166666667 0.125666666667,-0.280333333333 0.113,-0.277C0.107666666667,-0.263666666667 0.099166666667,-0.245166666667 0.0875,-0.2215C0.075833333333,-0.197833333333 0.063,-0.173666666667 0.049,-0.149C0.035,-0.124333333333 0.021666666667,-0.103 0.009,-0.085C0.009,-0.085 0.008833333333,-0.084833333333 0.0085,-0.0845C0.008166666667,-0.084166666667 0.007333333333,-0.084 0.006,-0.084C0.004666666667,-0.084 0.002833333333,-0.0845 0.0005,-0.0855C-0.001833333333,-0.0865 -0.002666666667,-0.087333333333 -0.002,-0.088C0.008666666667,-0.103333333333 0.019666666667,-0.121166666667 0.031,-0.1415C0.042333333333,-0.161833333333 0.053166666667,-0.182 0.0635,-0.202C0.073833333333,-0.222 0.0825,-0.239166666667 0.0895,-0.2535C0.0965,-0.267833333333 0.100333333333,-0.276333333333 0.101,-0.279C0.091,-0.282333333333 0.083166666667,-0.290166666667 0.0775,-0.3025C0.071833333333,-0.314833333333 0.069,-0.327333333333 0.069,-0.34C0.069,-0.351333333333 0.071666666667,-0.361 0.077,-0.369C0.082333333333,-0.377 0.090333333333,-0.381 0.101,-0.381C0.109,-0.381 0.1145,-0.376833333333 0.1175,-0.3685C0.1205,-0.360166666667 0.122,-0.350333333333 0.122,-0.339C0.122,-0.324333333333 0.120333333333,-0.309666666667 0.117,-0.295C0.117,-0.295 0.120666666667,-0.295666666667 0.128,-0.297C0.135333333333,-0.298333333333 0.144,-0.2995 0.154,-0.3005C0.164,-0.3015 0.172666666667,-0.302 0.18,-0.302C0.202,-0.302 0.213,-0.291333333333 0.213,-0.27C0.213,-0.256666666667 0.209333333333,-0.2395 0.202,-0.2185C0.194666666667,-0.1975 0.185333333333,-0.173333333333 0.174,-0.146C0.151333333333,-0.092 0.14,-0.054 0.14,-0.032C0.14,-0.018666666667 0.144333333333,-0.012 0.153,-0.012C0.163666666667,-0.012 0.178666666667,-0.020666666667 0.198,-0.038C0.217333333333,-0.055333333333 0.235166666667,-0.077166666667 0.2515,-0.1035C0.267833333333,-0.129833333333 0.288,-0.165333333333 0.312,-0.21C0.312666666667,-0.211333333333 0.313666666667,-0.212 0.315,-0.212C0.317,-0.212 0.318833333333,-0.211166666667 0.3205,-0.2095C0.322166666667,-0.207833333333 0.322666666667,-0.206333333333 0.322,-0.205C0.285333333333,-0.135666666667 0.253333333333,-0.083333333333 0.226,-0.048C0.198666666667,-0.012666666667 0.167,0.005 0.131,0.005Z" style="fill:rgb(243,106,133);fill-rule:nonzero;"/>
            </g>
            <g transform="matrix(62.292135,0,0,62.292135,449.697939,47.375269)">
                <path d="M0.112,0.01C0.083333333333,0.01 0.063,0.000166666667 0.051,-0.0195C0.039,-0.039166666667 0.033,-0.061666666667 0.033,-0.087C0.033,-0.102333333333 0.034666666667,-0.117333333333 0.038,-0.132C0.041333333333,-0.146666666667 0.045333333333,-0.160333333333 0.05,-0.173C0.057333333333,-0.191 0.067833333333,-0.210166666667 0.0815,-0.2305C0.095166666667,-0.250833333333 0.111666666667,-0.268333333333 0.131,-0.283C0.150333333333,-0.297666666667 0.171333333333,-0.305 0.194,-0.305C0.212666666667,-0.305 0.225666666667,-0.299833333333 0.233,-0.2895C0.240333333333,-0.279166666667 0.244,-0.266333333333 0.244,-0.251L0.244,-0.2435C0.244,-0.241166666667 0.243666666667,-0.238333333333 0.243,-0.235C0.241,-0.217 0.234,-0.198333333333 0.222,-0.179C0.21,-0.159666666667 0.195,-0.1435 0.177,-0.1305C0.159,-0.1175 0.139666666667,-0.111 0.119,-0.111C0.107,-0.111 0.096333333333,-0.114333333333 0.087,-0.121C0.081,-0.098333333333 0.078,-0.077666666667 0.078,-0.059C0.078,-0.043666666667 0.080833333333,-0.031 0.0865,-0.021C0.092166666667,-0.011 0.101,-0.006 0.113,-0.006C0.127,-0.006 0.143833333333,-0.012166666667 0.1635,-0.0245C0.183166666667,-0.036833333333 0.2045,-0.058 0.2275,-0.088C0.2505,-0.118 0.274,-0.159 0.298,-0.211C0.298,-0.211666666667 0.298666666667,-0.212 0.3,-0.212C0.302,-0.212 0.304166666667,-0.211166666667 0.3065,-0.2095C0.308833333333,-0.207833333333 0.309333333333,-0.206333333333 0.308,-0.205C0.275333333333,-0.131 0.240833333333,-0.076666666667 0.2045,-0.042C0.168166666667,-0.007333333333 0.137333333333,0.01 0.112,0.01ZM0.114,-0.127C0.128666666667,-0.127 0.143,-0.1325 0.157,-0.1435C0.171,-0.1545 0.183666666667,-0.1685 0.195,-0.1855C0.206333333333,-0.2025 0.215333333333,-0.219666666667 0.222,-0.237C0.224666666667,-0.244333333333 0.226,-0.252666666667 0.226,-0.262C0.226,-0.270666666667 0.2245,-0.278166666667 0.2215,-0.2845C0.2185,-0.290833333333 0.213333333333,-0.294 0.206,-0.294C0.194,-0.294 0.181,-0.2865 0.167,-0.2715C0.153,-0.2565 0.14,-0.238833333333 0.128,-0.2185C0.116,-0.198166666667 0.107,-0.179666666667 0.101,-0.163C0.099,-0.158333333333 0.097166666667,-0.1535 0.0955,-0.1485C0.093833333333,-0.1435 0.092333333333,-0.138333333333 0.091,-0.133C0.099,-0.129 0.106666666667,-0.127 0.114,-0.127Z" style="fill:rgb(243,106,133);fill-rule:nonzero;"/>
            </g>
            <g transform="matrix(62.292135,0,0,62.292135,464.02513,47.375269)">
                <path d="M0.074,0.005C0.051333333333,0.005 0.035833333333,-0.001333333333 0.0275,-0.014C0.019166666667,-0.026666666667 0.015,-0.042333333333 0.015,-0.061C0.015,-0.080333333333 0.018333333333,-0.100666666667 0.025,-0.122C0.031666666667,-0.143333333333 0.038,-0.160333333333 0.044,-0.173C0.065333333333,-0.217666666667 0.095166666667,-0.251833333333 0.1335,-0.2755C0.171833333333,-0.299166666667 0.211333333333,-0.311 0.252,-0.311L0.2685,-0.311C0.274166666667,-0.311 0.279666666667,-0.310333333333 0.285,-0.309C0.298333333333,-0.307 0.305,-0.305333333333 0.305,-0.304C0.305,-0.302666666667 0.300166666667,-0.301333333333 0.2905,-0.3C0.280833333333,-0.298666666667 0.273666666667,-0.298 0.269,-0.298C0.236333333333,-0.298 0.207166666667,-0.289333333333 0.1815,-0.272C0.155833333333,-0.254666666667 0.134,-0.232666666667 0.116,-0.206C0.098,-0.179333333333 0.084166666667,-0.152166666667 0.0745,-0.1245C0.064833333333,-0.096833333333 0.06,-0.073 0.06,-0.053C0.06,-0.040333333333 0.062166666667,-0.03 0.0665,-0.022C0.070833333333,-0.014 0.077333333333,-0.01 0.086,-0.01C0.095333333333,-0.01 0.106,-0.016333333333 0.118,-0.029C0.13,-0.041666666667 0.141666666667,-0.057166666667 0.153,-0.0755C0.164333333333,-0.093833333333 0.174666666667,-0.111833333333 0.184,-0.1295C0.193333333333,-0.147166666667 0.200333333333,-0.160666666667 0.205,-0.17L0.248,-0.26C0.259333333333,-0.262666666667 0.270833333333,-0.265833333333 0.2825,-0.2695C0.294166666667,-0.273166666667 0.305333333333,-0.277333333333 0.316,-0.282C0.304666666667,-0.262666666667 0.293833333333,-0.242333333333 0.2835,-0.221C0.273166666667,-0.199666666667 0.262666666667,-0.178666666667 0.252,-0.158C0.244,-0.142666666667 0.236166666667,-0.124666666667 0.2285,-0.104C0.220833333333,-0.083333333333 0.217,-0.064666666667 0.217,-0.048L0.217,-0.044C0.217,-0.038666666667 0.217666666667,-0.032833333333 0.219,-0.0265C0.220333333333,-0.020166666667 0.224,-0.017 0.23,-0.017C0.237333333333,-0.017 0.246666666667,-0.0215 0.258,-0.0305C0.269333333333,-0.0395 0.277333333333,-0.046333333333 0.282,-0.051C0.303333333333,-0.072333333333 0.321833333333,-0.096 0.3375,-0.122C0.353166666667,-0.148 0.367666666667,-0.174333333333 0.381,-0.201C0.382333333333,-0.202333333333 0.383333333333,-0.203 0.384,-0.203C0.389333333333,-0.203 0.391333333333,-0.200333333333 0.39,-0.195C0.39,-0.195 0.3885,-0.192 0.3855,-0.186C0.3825,-0.18 0.380666666667,-0.176666666667 0.38,-0.176C0.367333333333,-0.152666666667 0.354666666667,-0.130333333333 0.342,-0.109C0.329333333333,-0.087666666667 0.314333333333,-0.067333333333 0.297,-0.048C0.286333333333,-0.037333333333 0.273333333333,-0.026 0.258,-0.014C0.242666666667,-0.002 0.227333333333,0.004 0.212,0.004C0.197333333333,0.004 0.187,-0.001833333333 0.181,-0.0135C0.175,-0.025166666667 0.172,-0.038333333333 0.172,-0.053C0.172,-0.062333333333 0.172833333333,-0.0715 0.1745,-0.0805C0.176166666667,-0.0895 0.178,-0.097333333333 0.18,-0.104C0.175333333333,-0.092 0.167166666667,-0.077333333333 0.1555,-0.06C0.143833333333,-0.042666666667 0.130833333333,-0.0275 0.1165,-0.0145C0.102166666667,-0.0015 0.088,0.005 0.074,0.005Z" style="fill:rgb(243,106,133);fill-rule:nonzero;"/>
            </g>
            <g transform="matrix(62.292135,0,0,62.292135,483.771737,47.375269)">
                <path d="M0.058,0.004C0.042666666667,0.004 0.031666666667,-0.001666666667 0.025,-0.013C0.018333333333,-0.024333333333 0.015,-0.037666666667 0.015,-0.053C0.015,-0.073666666667 0.019333333333,-0.094333333333 0.028,-0.115C0.042,-0.151666666667 0.055166666667,-0.183333333333 0.0675,-0.21C0.079833333333,-0.236666666667 0.092333333333,-0.262333333333 0.105,-0.287L0.078,-0.287C0.075333333333,-0.287 0.074,-0.288333333333 0.074,-0.291C0.074,-0.293 0.075,-0.295333333333 0.077,-0.298C0.079,-0.300666666667 0.081333333333,-0.302 0.084,-0.302L0.113,-0.302L0.185,-0.446C0.196333333333,-0.448666666667 0.2085,-0.451833333333 0.2215,-0.4555C0.2345,-0.459166666667 0.246333333333,-0.463333333333 0.257,-0.468C0.246333333333,-0.45 0.231666666667,-0.4265 0.213,-0.3975C0.194333333333,-0.3685 0.175333333333,-0.336666666667 0.156,-0.302L0.227,-0.302C0.229666666667,-0.302 0.231,-0.300666666667 0.231,-0.298C0.231,-0.296 0.23,-0.293666666667 0.228,-0.291C0.226,-0.288333333333 0.223666666667,-0.287 0.221,-0.287L0.147,-0.287C0.126333333333,-0.250333333333 0.107833333333,-0.212333333333 0.0915,-0.173C0.075166666667,-0.133666666667 0.064333333333,-0.096666666667 0.059,-0.062C0.058333333333,-0.059333333333 0.058,-0.0565 0.058,-0.0535L0.058,-0.046C0.058,-0.028 0.064,-0.019 0.076,-0.019C0.083333333333,-0.019 0.091666666667,-0.022166666667 0.101,-0.0285C0.110333333333,-0.034833333333 0.119333333333,-0.042333333333 0.128,-0.051C0.149333333333,-0.072333333333 0.167833333333,-0.096 0.1835,-0.122C0.199166666667,-0.148 0.213666666667,-0.174333333333 0.227,-0.201C0.228333333333,-0.202333333333 0.229333333333,-0.203 0.23,-0.203C0.234666666667,-0.203 0.237,-0.200333333333 0.237,-0.195C0.236333333333,-0.195 0.2345,-0.192 0.2315,-0.186C0.2285,-0.18 0.226666666667,-0.176666666667 0.226,-0.176C0.214,-0.152666666667 0.201666666667,-0.130333333333 0.189,-0.109C0.176333333333,-0.087666666667 0.161,-0.067333333333 0.143,-0.048C0.133,-0.037333333333 0.120333333333,-0.026 0.105,-0.014C0.089666666667,-0.002 0.074,0.004 0.058,0.004Z" style="fill:rgb(243,106,133);fill-rule:nonzero;"/>
            </g>
            <g transform="matrix(62.292135,0,0,62.292135,507.691916,47.375269)">
                <path d="M0.078,0.005C0.056,0.005 0.040833333333,-0.001166666667 0.0325,-0.0135C0.024166666667,-0.025833333333 0.02,-0.041 0.02,-0.059C0.02,-0.078333333333 0.023333333333,-0.098833333333 0.03,-0.1205C0.036666666667,-0.142166666667 0.043,-0.159666666667 0.049,-0.173C0.067,-0.215 0.089666666667,-0.247833333333 0.117,-0.2715C0.144333333333,-0.295166666667 0.169333333333,-0.307 0.192,-0.307C0.211333333333,-0.307 0.2245,-0.301333333333 0.2315,-0.29C0.2385,-0.278666666667 0.242,-0.264666666667 0.242,-0.248C0.242,-0.230666666667 0.239166666667,-0.2125 0.2335,-0.1935C0.227833333333,-0.1745 0.221666666667,-0.158333333333 0.215,-0.145C0.207,-0.128333333333 0.198666666667,-0.112666666667 0.19,-0.098C0.181333333333,-0.083333333333 0.172333333333,-0.07 0.163,-0.058C0.169,-0.052666666667 0.176333333333,-0.05 0.185,-0.05C0.198333333333,-0.05 0.2115,-0.056333333333 0.2245,-0.069C0.2375,-0.081666666667 0.249833333333,-0.097333333333 0.2615,-0.116C0.273166666667,-0.134666666667 0.2835,-0.152666666667 0.2925,-0.17C0.3015,-0.187333333333 0.308333333333,-0.200333333333 0.313,-0.209C0.314333333333,-0.211 0.315666666667,-0.212 0.317,-0.212C0.318333333333,-0.212 0.319666666667,-0.210833333333 0.321,-0.2085C0.322333333333,-0.206166666667 0.322333333333,-0.203666666667 0.321,-0.201C0.310333333333,-0.178333333333 0.297166666667,-0.153 0.2815,-0.125C0.265833333333,-0.097 0.248333333333,-0.074 0.229,-0.056C0.221,-0.048666666667 0.213333333333,-0.043333333333 0.206,-0.04C0.198666666667,-0.036666666667 0.192,-0.035 0.186,-0.035C0.174666666667,-0.035 0.164666666667,-0.039333333333 0.156,-0.048C0.143333333333,-0.031333333333 0.130333333333,-0.018333333333 0.117,-0.009C0.103666666667,0.000333333333 0.090666666667,0.005 0.078,0.005ZM0.09,-0.01C0.097333333333,-0.01 0.106,-0.0145 0.116,-0.0235C0.126,-0.0325 0.136333333333,-0.044333333333 0.147,-0.059C0.147,-0.059 0.145166666667,-0.062333333333 0.1415,-0.069C0.137833333333,-0.075666666667 0.136,-0.085666666667 0.136,-0.099C0.136,-0.104333333333 0.136333333333,-0.110166666667 0.137,-0.1165C0.137666666667,-0.122833333333 0.139333333333,-0.129333333333 0.142,-0.136C0.146666666667,-0.149333333333 0.152333333333,-0.159166666667 0.159,-0.1655C0.165666666667,-0.171833333333 0.172333333333,-0.175 0.179,-0.175C0.185,-0.175 0.189833333333,-0.172166666667 0.1935,-0.1665C0.197166666667,-0.160833333333 0.198,-0.152666666667 0.196,-0.142C0.205333333333,-0.162666666667 0.213,-0.182833333333 0.219,-0.2025C0.225,-0.222166666667 0.228,-0.239333333333 0.228,-0.254C0.228,-0.265333333333 0.225833333333,-0.2745 0.2215,-0.2815C0.217166666667,-0.2885 0.209666666667,-0.292 0.199,-0.292C0.189666666667,-0.292 0.179,-0.286166666667 0.167,-0.2745C0.155,-0.262833333333 0.142833333333,-0.2475 0.1305,-0.2285C0.118166666667,-0.2095 0.106833333333,-0.189 0.0965,-0.167C0.086166666667,-0.145 0.077833333333,-0.1235 0.0715,-0.1025C0.065166666667,-0.0815 0.062,-0.063333333333 0.062,-0.048C0.062,-0.036666666667 0.064166666667,-0.0275 0.0685,-0.0205C0.072833333333,-0.0135 0.08,-0.01 0.09,-0.01Z" style="fill:rgb(243,106,133);fill-rule:nonzero;"/>
            </g>
            <g transform="matrix(62.292135,0,0,62.292135,523.140366,47.375269)">
                <path d="M0.243,0.005C0.215,0.005 0.201,-0.010666666667 0.201,-0.042C0.201,-0.054 0.203333333333,-0.068333333333 0.208,-0.085C0.212666666667,-0.101666666667 0.22,-0.12 0.23,-0.14C0.235333333333,-0.151333333333 0.2425,-0.164833333333 0.2515,-0.1805C0.2605,-0.196166666667 0.268666666667,-0.211666666667 0.276,-0.227C0.283333333333,-0.242333333333 0.287,-0.254333333333 0.287,-0.263C0.287,-0.271666666667 0.282333333333,-0.276 0.273,-0.276C0.260333333333,-0.276 0.247166666667,-0.269166666667 0.2335,-0.2555C0.219833333333,-0.241833333333 0.206333333333,-0.224333333333 0.193,-0.203C0.179666666667,-0.181666666667 0.167,-0.159333333333 0.155,-0.136C0.143,-0.112666666667 0.132666666667,-0.090833333333 0.124,-0.0705C0.115333333333,-0.050166666667 0.109,-0.034666666667 0.105,-0.024C0.101,-0.014 0.095333333333,-0.007666666667 0.088,-0.005C0.080666666667,-0.002333333333 0.072833333333,-0.001 0.0645,-0.001C0.056166666667,-0.001 0.048333333333,0.000333333333 0.041,0.003C0.050333333333,-0.018333333333 0.058,-0.035666666667 0.064,-0.049C0.07,-0.062333333333 0.076333333333,-0.075833333333 0.083,-0.0895C0.089666666667,-0.103166666667 0.097666666667,-0.121666666667 0.107,-0.145C0.112333333333,-0.157 0.118333333333,-0.170833333333 0.125,-0.1865C0.131666666667,-0.202166666667 0.1375,-0.2175 0.1425,-0.2325C0.1475,-0.2475 0.15,-0.259333333333 0.15,-0.268C0.15,-0.278 0.146666666667,-0.283 0.14,-0.283C0.132,-0.283 0.124,-0.278 0.116,-0.268C0.108,-0.258 0.100833333333,-0.246833333333 0.0945,-0.2345C0.088166666667,-0.222166666667 0.083,-0.212333333333 0.079,-0.205C0.069,-0.185666666667 0.059,-0.166666666667 0.049,-0.148C0.039,-0.129333333333 0.027666666667,-0.111333333333 0.015,-0.094L0.014,-0.094C0.012,-0.094 0.009833333333,-0.094666666667 0.0075,-0.096C0.005166666667,-0.097333333333 0.004333333333,-0.098333333333 0.005,-0.099C0.016333333333,-0.117 0.027166666667,-0.135 0.0375,-0.153C0.047833333333,-0.171 0.057333333333,-0.189 0.066,-0.207C0.073333333333,-0.221 0.081333333333,-0.235833333333 0.09,-0.2515C0.098666666667,-0.267166666667 0.108666666667,-0.280333333333 0.12,-0.291C0.131333333333,-0.301666666667 0.144333333333,-0.307 0.159,-0.307C0.165666666667,-0.307 0.173333333333,-0.305333333333 0.182,-0.302C0.191333333333,-0.298 0.196,-0.289 0.196,-0.275C0.196,-0.267666666667 0.194666666667,-0.258666666667 0.192,-0.248C0.189333333333,-0.237333333333 0.185666666667,-0.225333333333 0.181,-0.212C0.198333333333,-0.236666666667 0.216666666667,-0.257833333333 0.236,-0.2755C0.255333333333,-0.293166666667 0.273,-0.302 0.289,-0.302C0.314333333333,-0.302 0.327,-0.29 0.327,-0.266C0.327,-0.251333333333 0.322666666667,-0.233333333333 0.314,-0.212C0.311333333333,-0.204666666667 0.3065,-0.193166666667 0.2995,-0.1775C0.2925,-0.161833333333 0.2855,-0.1445 0.2785,-0.1255C0.2715,-0.1065 0.265333333333,-0.088333333333 0.26,-0.071C0.254666666667,-0.053666666667 0.252,-0.039333333333 0.252,-0.028C0.252,-0.016 0.255666666667,-0.01 0.263,-0.01C0.267666666667,-0.01 0.273833333333,-0.012166666667 0.2815,-0.0165C0.289166666667,-0.020833333333 0.298333333333,-0.028 0.309,-0.038C0.328333333333,-0.055333333333 0.3465,-0.077333333333 0.3635,-0.104C0.3805,-0.130666666667 0.400666666667,-0.166333333333 0.424,-0.211C0.424,-0.212333333333 0.424666666667,-0.213 0.426,-0.213C0.428,-0.213 0.43,-0.212 0.432,-0.21C0.434,-0.208 0.434333333333,-0.206333333333 0.433,-0.205C0.409,-0.158333333333 0.387166666667,-0.1195 0.3675,-0.0885C0.347833333333,-0.0575 0.328166666667,-0.034166666667 0.3085,-0.0185C0.288833333333,-0.002833333333 0.267,0.005 0.243,0.005Z" style="fill:rgb(243,106,133);fill-rule:nonzero;"/>
            </g>
            <g transform="matrix(62.292135,0,0,62.292135,558.958343,47.375269)">
                <path d="M0.058,0.004C0.042666666667,0.004 0.031666666667,-0.001666666667 0.025,-0.013C0.018333333333,-0.024333333333 0.015,-0.037666666667 0.015,-0.053C0.015,-0.073666666667 0.019333333333,-0.094333333333 0.028,-0.115C0.042,-0.151666666667 0.055166666667,-0.183333333333 0.0675,-0.21C0.079833333333,-0.236666666667 0.092333333333,-0.262333333333 0.105,-0.287L0.078,-0.287C0.075333333333,-0.287 0.074,-0.288333333333 0.074,-0.291C0.074,-0.293 0.075,-0.295333333333 0.077,-0.298C0.079,-0.300666666667 0.081333333333,-0.302 0.084,-0.302L0.113,-0.302L0.185,-0.446C0.196333333333,-0.448666666667 0.2085,-0.451833333333 0.2215,-0.4555C0.2345,-0.459166666667 0.246333333333,-0.463333333333 0.257,-0.468C0.246333333333,-0.45 0.231666666667,-0.4265 0.213,-0.3975C0.194333333333,-0.3685 0.175333333333,-0.336666666667 0.156,-0.302L0.227,-0.302C0.229666666667,-0.302 0.231,-0.300666666667 0.231,-0.298C0.231,-0.296 0.23,-0.293666666667 0.228,-0.291C0.226,-0.288333333333 0.223666666667,-0.287 0.221,-0.287L0.147,-0.287C0.126333333333,-0.250333333333 0.107833333333,-0.212333333333 0.0915,-0.173C0.075166666667,-0.133666666667 0.064333333333,-0.096666666667 0.059,-0.062C0.058333333333,-0.059333333333 0.058,-0.0565 0.058,-0.0535L0.058,-0.046C0.058,-0.028 0.064,-0.019 0.076,-0.019C0.083333333333,-0.019 0.091666666667,-0.022166666667 0.101,-0.0285C0.110333333333,-0.034833333333 0.119333333333,-0.042333333333 0.128,-0.051C0.149333333333,-0.072333333333 0.167833333333,-0.096 0.1835,-0.122C0.199166666667,-0.148 0.213666666667,-0.174333333333 0.227,-0.201C0.228333333333,-0.202333333333 0.229333333333,-0.203 0.23,-0.203C0.234666666667,-0.203 0.237,-0.200333333333 0.237,-0.195C0.236333333333,-0.195 0.2345,-0.192 0.2315,-0.186C0.2285,-0.18 0.226666666667,-0.176666666667 0.226,-0.176C0.214,-0.152666666667 0.201666666667,-0.130333333333 0.189,-0.109C0.176333333333,-0.087666666667 0.161,-0.067333333333 0.143,-0.048C0.133,-0.037333333333 0.120333333333,-0.026 0.105,-0.014C0.089666666667,-0.002 0.074,0.004 0.058,0.004Z" style="fill:rgb(243,106,133);fill-rule:nonzero;"/>
            </g>
            <g transform="matrix(62.292135,0,0,62.292135,569.174253,47.375269)">
                <path d="M0.19,0.005C0.162,0.005 0.148,-0.010666666667 0.148,-0.042C0.148,-0.068 0.157333333333,-0.100666666667 0.176,-0.14C0.182,-0.151333333333 0.1895,-0.164833333333 0.1985,-0.1805C0.2075,-0.196166666667 0.2155,-0.2115 0.2225,-0.2265C0.2295,-0.2415 0.233,-0.253333333333 0.233,-0.262C0.233,-0.271333333333 0.228333333333,-0.276 0.219,-0.276C0.207,-0.276 0.194,-0.269166666667 0.18,-0.2555C0.166,-0.241833333333 0.152166666667,-0.2245 0.1385,-0.2035C0.124833333333,-0.1825 0.112166666667,-0.160333333333 0.1005,-0.137C0.088833333333,-0.113666666667 0.078833333333,-0.092166666667 0.0705,-0.0725C0.062166666667,-0.052833333333 0.056333333333,-0.037666666667 0.053,-0.027C0.050333333333,-0.016333333333 0.046166666667,-0.009666666667 0.0405,-0.007C0.034833333333,-0.004333333333 0.0285,-0.003166666667 0.0215,-0.0035C0.0145,-0.003833333333 0.007333333333,-0.002666666667 0,-0C0.014,-0.046 0.029,-0.094833333333 0.045,-0.1465C0.061,-0.198166666667 0.078333333333,-0.250333333333 0.097,-0.303C0.115666666667,-0.355666666667 0.136166666667,-0.406166666667 0.1585,-0.4545C0.180833333333,-0.502833333333 0.206,-0.546333333333 0.234,-0.585C0.251333333333,-0.608333333333 0.268833333333,-0.626 0.2865,-0.638C0.304166666667,-0.65 0.32,-0.656 0.334,-0.656C0.344666666667,-0.656 0.353166666667,-0.6525 0.3595,-0.6455C0.365833333333,-0.6385 0.369,-0.628 0.369,-0.614C0.369,-0.603333333333 0.366666666667,-0.590166666667 0.362,-0.5745C0.357333333333,-0.558833333333 0.349333333333,-0.541333333333 0.338,-0.522C0.324666666667,-0.498 0.308833333333,-0.473333333333 0.2905,-0.448C0.272166666667,-0.422666666667 0.253166666667,-0.398666666667 0.2335,-0.376C0.213833333333,-0.353333333333 0.195166666667,-0.333833333333 0.1775,-0.3175C0.159833333333,-0.301166666667 0.145,-0.29 0.133,-0.284C0.131,-0.279333333333 0.127333333333,-0.269333333333 0.122,-0.254C0.116666666667,-0.238666666667 0.111166666667,-0.2215 0.1055,-0.2025C0.099833333333,-0.1835 0.094333333333,-0.165333333333 0.089,-0.148C0.101666666667,-0.172 0.1165,-0.195833333333 0.1335,-0.2195C0.1505,-0.243166666667 0.168,-0.262833333333 0.186,-0.2785C0.204,-0.294166666667 0.220333333333,-0.302 0.235,-0.302C0.259666666667,-0.302 0.272,-0.291 0.272,-0.269C0.272,-0.255666666667 0.268333333333,-0.238666666667 0.261,-0.218C0.253666666667,-0.197333333333 0.244333333333,-0.173333333333 0.233,-0.146C0.221,-0.118 0.212166666667,-0.0945 0.2065,-0.0755C0.200833333333,-0.0565 0.198,-0.041666666667 0.198,-0.031C0.198,-0.018333333333 0.202333333333,-0.012 0.211,-0.012C0.220333333333,-0.012 0.235333333333,-0.020666666667 0.256,-0.038C0.275333333333,-0.055333333333 0.293333333333,-0.077166666667 0.31,-0.1035C0.326666666667,-0.129833333333 0.346666666667,-0.165666666667 0.37,-0.211C0.371333333333,-0.212333333333 0.372333333333,-0.213 0.373,-0.213C0.375,-0.213 0.377166666667,-0.212 0.3795,-0.21C0.381833333333,-0.208 0.382333333333,-0.206333333333 0.381,-0.205C0.356333333333,-0.159 0.334166666667,-0.120333333333 0.3145,-0.089C0.294833333333,-0.057666666667 0.275333333333,-0.034166666667 0.256,-0.0185C0.236666666667,-0.002833333333 0.214666666667,0.005 0.19,0.005ZM0.139,-0.305C0.157666666667,-0.316333333333 0.1785,-0.3345 0.2015,-0.3595C0.2245,-0.3845 0.247,-0.412666666667 0.269,-0.444C0.291,-0.475333333333 0.309,-0.505 0.323,-0.533C0.331666666667,-0.550333333333 0.337833333333,-0.565833333333 0.3415,-0.5795C0.345166666667,-0.593166666667 0.347,-0.605 0.347,-0.615C0.347,-0.633666666667 0.341666666667,-0.643 0.331,-0.643C0.323,-0.643 0.312833333333,-0.637 0.3005,-0.625C0.288166666667,-0.613 0.274333333333,-0.593333333333 0.259,-0.566C0.246333333333,-0.543333333333 0.2335,-0.5185 0.2205,-0.4915C0.2075,-0.4645 0.195333333333,-0.438166666667 0.184,-0.4125C0.172666666667,-0.386833333333 0.163,-0.364333333333 0.155,-0.345C0.147,-0.325666666667 0.141666666667,-0.312333333333 0.139,-0.305Z" style="fill:rgb(243,106,133);fill-rule:nonzero;"/>
            </g>
            <g transform="matrix(62.292135,0,0,62.292135,587.986478,47.375269)">
                <path d="M0.112,0.01C0.083333333333,0.01 0.063,0.000166666667 0.051,-0.0195C0.039,-0.039166666667 0.033,-0.061666666667 0.033,-0.087C0.033,-0.102333333333 0.034666666667,-0.117333333333 0.038,-0.132C0.041333333333,-0.146666666667 0.045333333333,-0.160333333333 0.05,-0.173C0.057333333333,-0.191 0.067833333333,-0.210166666667 0.0815,-0.2305C0.095166666667,-0.250833333333 0.111666666667,-0.268333333333 0.131,-0.283C0.150333333333,-0.297666666667 0.171333333333,-0.305 0.194,-0.305C0.212666666667,-0.305 0.225666666667,-0.299833333333 0.233,-0.2895C0.240333333333,-0.279166666667 0.244,-0.266333333333 0.244,-0.251L0.244,-0.2435C0.244,-0.241166666667 0.243666666667,-0.238333333333 0.243,-0.235C0.241,-0.217 0.234,-0.198333333333 0.222,-0.179C0.21,-0.159666666667 0.195,-0.1435 0.177,-0.1305C0.159,-0.1175 0.139666666667,-0.111 0.119,-0.111C0.107,-0.111 0.096333333333,-0.114333333333 0.087,-0.121C0.081,-0.098333333333 0.078,-0.077666666667 0.078,-0.059C0.078,-0.043666666667 0.080833333333,-0.031 0.0865,-0.021C0.092166666667,-0.011 0.101,-0.006 0.113,-0.006C0.127,-0.006 0.143833333333,-0.012166666667 0.1635,-0.0245C0.183166666667,-0.036833333333 0.2045,-0.058 0.2275,-0.088C0.2505,-0.118 0.274,-0.159 0.298,-0.211C0.298,-0.211666666667 0.298666666667,-0.212 0.3,-0.212C0.302,-0.212 0.304166666667,-0.211166666667 0.3065,-0.2095C0.308833333333,-0.207833333333 0.309333333333,-0.206333333333 0.308,-0.205C0.275333333333,-0.131 0.240833333333,-0.076666666667 0.2045,-0.042C0.168166666667,-0.007333333333 0.137333333333,0.01 0.112,0.01ZM0.114,-0.127C0.128666666667,-0.127 0.143,-0.1325 0.157,-0.1435C0.171,-0.1545 0.183666666667,-0.1685 0.195,-0.1855C0.206333333333,-0.2025 0.215333333333,-0.219666666667 0.222,-0.237C0.224666666667,-0.244333333333 0.226,-0.252666666667 0.226,-0.262C0.226,-0.270666666667 0.2245,-0.278166666667 0.2215,-0.2845C0.2185,-0.290833333333 0.213333333333,-0.294 0.206,-0.294C0.194,-0.294 0.181,-0.2865 0.167,-0.2715C0.153,-0.2565 0.14,-0.238833333333 0.128,-0.2185C0.116,-0.198166666667 0.107,-0.179666666667 0.101,-0.163C0.099,-0.158333333333 0.097166666667,-0.1535 0.0955,-0.1485C0.093833333333,-0.1435 0.092333333333,-0.138333333333 0.091,-0.133C0.099,-0.129 0.106666666667,-0.127 0.114,-0.127Z" style="fill:rgb(243,106,133);fill-rule:nonzero;"/>
            </g>
        </g>
        <g transform="matrix(3.937342,0,0,3.937342,-994.171377,28.757402)">
            <g transform="matrix(38.067416,0,0,38.067416,375.134253,47.375269)">
                <path d="M0.079,0.009C0.066333333333,0.009 0.055,0.003833333333 0.045,-0.0065C0.035,-0.016833333333 0.03,-0.035333333333 0.03,-0.062C0.03,-0.08 0.033666666667,-0.103333333333 0.041,-0.132C0.048333333333,-0.160666666667 0.058166666667,-0.192333333333 0.0705,-0.227C0.082833333333,-0.261666666667 0.0965,-0.297166666667 0.1115,-0.3335C0.1265,-0.369833333333 0.141833333333,-0.4045 0.1575,-0.4375C0.173166666667,-0.4705 0.187833333333,-0.5 0.2015,-0.526C0.215166666667,-0.552 0.227,-0.571666666667 0.237,-0.585C0.254333333333,-0.608333333333 0.272166666667,-0.626166666667 0.2905,-0.6385C0.308833333333,-0.650833333333 0.324666666667,-0.657 0.338,-0.657C0.36,-0.657 0.371,-0.643333333333 0.371,-0.616C0.371,-0.601333333333 0.366666666667,-0.5825 0.358,-0.5595C0.349333333333,-0.5365 0.335,-0.509 0.315,-0.477C0.300333333333,-0.453666666667 0.283833333333,-0.429166666667 0.2655,-0.4035C0.247166666667,-0.377833333333 0.228666666667,-0.353 0.21,-0.329C0.191333333333,-0.305 0.1735,-0.2835 0.1565,-0.2645C0.1395,-0.2455 0.125,-0.230666666667 0.113,-0.22C0.113,-0.22 0.110666666667,-0.2135 0.106,-0.2005C0.101333333333,-0.1875 0.095833333333,-0.171166666667 0.0895,-0.1515C0.083166666667,-0.131833333333 0.077666666667,-0.111666666667 0.073,-0.091C0.068333333333,-0.070333333333 0.066,-0.052333333333 0.066,-0.037C0.066,-0.027 0.0675,-0.018833333333 0.0705,-0.0125C0.0735,-0.006166666667 0.078333333333,-0.003 0.085,-0.003C0.095,-0.003 0.108666666667,-0.009666666667 0.126,-0.023C0.136666666667,-0.031 0.147,-0.0405 0.157,-0.0515C0.167,-0.0625 0.175833333333,-0.073333333333 0.1835,-0.084C0.191166666667,-0.094666666667 0.196333333333,-0.102333333333 0.199,-0.107C0.205,-0.116333333333 0.212166666667,-0.128333333333 0.2205,-0.143C0.228833333333,-0.157666666667 0.236666666667,-0.1715 0.244,-0.1845C0.251333333333,-0.1975 0.255666666667,-0.205666666667 0.257,-0.209C0.258333333333,-0.210333333333 0.259333333333,-0.211 0.26,-0.211C0.261333333333,-0.211 0.263,-0.210166666667 0.265,-0.2085C0.267,-0.206833333333 0.267333333333,-0.205333333333 0.266,-0.204C0.25,-0.170666666667 0.235166666667,-0.142333333333 0.2215,-0.119C0.207833333333,-0.095666666667 0.194,-0.075833333333 0.18,-0.0595C0.166,-0.043166666667 0.150333333333,-0.027666666667 0.133,-0.013C0.125666666667,-0.006333333333 0.117166666667,-0.001 0.1075,0.003C0.097833333333,0.007 0.088333333333,0.009 0.079,0.009ZM0.12,-0.242C0.136,-0.260666666667 0.155,-0.284166666667 0.177,-0.3125C0.199,-0.340833333333 0.221333333333,-0.370666666667 0.244,-0.402C0.266666666667,-0.433333333333 0.286333333333,-0.462666666667 0.303,-0.49C0.319666666667,-0.517333333333 0.3315,-0.541333333333 0.3385,-0.562C0.3455,-0.582666666667 0.349,-0.599333333333 0.349,-0.612C0.349,-0.63 0.343333333333,-0.639 0.332,-0.639C0.324666666667,-0.639 0.314833333333,-0.633166666667 0.3025,-0.6215C0.290166666667,-0.609833333333 0.277,-0.591333333333 0.263,-0.566C0.253,-0.548 0.242,-0.526333333333 0.23,-0.501C0.218,-0.475666666667 0.206,-0.449 0.194,-0.421C0.182,-0.393 0.170666666667,-0.3665 0.16,-0.3415C0.149333333333,-0.3165 0.1405,-0.295 0.1335,-0.277C0.1265,-0.259 0.122,-0.247333333333 0.12,-0.242Z" style="fill:rgb(243,106,133);fill-rule:nonzero;"/>
            </g>
            <g transform="matrix(38.067416,0,0,38.067416,382.328995,47.375269)">
                <path d="M0.074,0.005C0.051333333333,0.005 0.035833333333,-0.001333333333 0.0275,-0.014C0.019166666667,-0.026666666667 0.015,-0.042333333333 0.015,-0.061C0.015,-0.080333333333 0.018333333333,-0.100666666667 0.025,-0.122C0.031666666667,-0.143333333333 0.038,-0.160333333333 0.044,-0.173C0.065333333333,-0.217666666667 0.095166666667,-0.251833333333 0.1335,-0.2755C0.171833333333,-0.299166666667 0.211333333333,-0.311 0.252,-0.311L0.2685,-0.311C0.274166666667,-0.311 0.279666666667,-0.310333333333 0.285,-0.309C0.298333333333,-0.307 0.305,-0.305333333333 0.305,-0.304C0.305,-0.302666666667 0.300166666667,-0.301333333333 0.2905,-0.3C0.280833333333,-0.298666666667 0.273666666667,-0.298 0.269,-0.298C0.236333333333,-0.298 0.207166666667,-0.289333333333 0.1815,-0.272C0.155833333333,-0.254666666667 0.134,-0.232666666667 0.116,-0.206C0.098,-0.179333333333 0.084166666667,-0.152166666667 0.0745,-0.1245C0.064833333333,-0.096833333333 0.06,-0.073 0.06,-0.053C0.06,-0.040333333333 0.062166666667,-0.03 0.0665,-0.022C0.070833333333,-0.014 0.077333333333,-0.01 0.086,-0.01C0.095333333333,-0.01 0.106,-0.016333333333 0.118,-0.029C0.13,-0.041666666667 0.141666666667,-0.057166666667 0.153,-0.0755C0.164333333333,-0.093833333333 0.174666666667,-0.111833333333 0.184,-0.1295C0.193333333333,-0.147166666667 0.200333333333,-0.160666666667 0.205,-0.17L0.248,-0.26C0.259333333333,-0.262666666667 0.270833333333,-0.265833333333 0.2825,-0.2695C0.294166666667,-0.273166666667 0.305333333333,-0.277333333333 0.316,-0.282C0.304666666667,-0.262666666667 0.293833333333,-0.242333333333 0.2835,-0.221C0.273166666667,-0.199666666667 0.262666666667,-0.178666666667 0.252,-0.158C0.244,-0.142666666667 0.236166666667,-0.124666666667 0.2285,-0.104C0.220833333333,-0.083333333333 0.217,-0.064666666667 0.217,-0.048L0.217,-0.044C0.217,-0.038666666667 0.217666666667,-0.032833333333 0.219,-0.0265C0.220333333333,-0.020166666667 0.224,-0.017 0.23,-0.017C0.237333333333,-0.017 0.246666666667,-0.0215 0.258,-0.0305C0.269333333333,-0.0395 0.277333333333,-0.046333333333 0.282,-0.051C0.303333333333,-0.072333333333 0.321833333333,-0.096 0.3375,-0.122C0.353166666667,-0.148 0.367666666667,-0.174333333333 0.381,-0.201C0.382333333333,-0.202333333333 0.383333333333,-0.203 0.384,-0.203C0.389333333333,-0.203 0.391333333333,-0.200333333333 0.39,-0.195C0.39,-0.195 0.3885,-0.192 0.3855,-0.186C0.3825,-0.18 0.380666666667,-0.176666666667 0.38,-0.176C0.367333333333,-0.152666666667 0.354666666667,-0.130333333333 0.342,-0.109C0.329333333333,-0.087666666667 0.314333333333,-0.067333333333 0.297,-0.048C0.286333333333,-0.037333333333 0.273333333333,-0.026 0.258,-0.014C0.242666666667,-0.002 0.227333333333,0.004 0.212,0.004C0.197333333333,0.004 0.187,-0.001833333333 0.181,-0.0135C0.175,-0.025166666667 0.172,-0.038333333333 0.172,-0.053C0.172,-0.062333333333 0.172833333333,-0.0715 0.1745,-0.0805C0.176166666667,-0.0895 0.178,-0.097333333333 0.18,-0.104C0.175333333333,-0.092 0.167166666667,-0.077333333333 0.1555,-0.06C0.143833333333,-0.042666666667 0.130833333333,-0.0275 0.1165,-0.0145C0.102166666667,-0.0015 0.088,0.005 0.074,0.005Z" style="fill:rgb(243,106,133);fill-rule:nonzero;"/>
            </g>
            <g transform="matrix(38.067416,0,0,38.067416,394.396366,47.375269)">
                <path d="M0.189,0.005C0.162333333333,0.005 0.144166666667,-0.0045 0.1345,-0.0235C0.124833333333,-0.0425 0.12,-0.064666666667 0.12,-0.09C0.12,-0.109333333333 0.121833333333,-0.128666666667 0.1255,-0.148C0.129166666667,-0.167333333333 0.133333333333,-0.184333333333 0.138,-0.199C0.144666666667,-0.198333333333 0.1585,-0.201333333333 0.1795,-0.208C0.2005,-0.214666666667 0.220333333333,-0.222666666667 0.239,-0.232C0.250333333333,-0.237333333333 0.2585,-0.244 0.2635,-0.252C0.2685,-0.26 0.271,-0.267333333333 0.271,-0.274C0.271,-0.28 0.269166666667,-0.285166666667 0.2655,-0.2895C0.261833333333,-0.293833333333 0.256333333333,-0.296 0.249,-0.296C0.240333333333,-0.296 0.230666666667,-0.292666666667 0.22,-0.286C0.208,-0.278666666667 0.193333333333,-0.267 0.176,-0.251C0.158666666667,-0.235 0.141666666667,-0.216333333333 0.125,-0.195C0.108333333333,-0.173666666667 0.094333333333,-0.151 0.083,-0.127L0.053,-0.027C0.049666666667,-0.016333333333 0.045333333333,-0.009666666667 0.04,-0.007C0.034666666667,-0.004333333333 0.0285,-0.003166666667 0.0215,-0.0035C0.0145,-0.003833333333 0.007333333333,-0.002666666667 0,-0C0.014,-0.046 0.029,-0.094833333333 0.045,-0.1465C0.061,-0.198166666667 0.078333333333,-0.250333333333 0.097,-0.303C0.115666666667,-0.355666666667 0.136166666667,-0.406166666667 0.1585,-0.4545C0.180833333333,-0.502833333333 0.206,-0.546333333333 0.234,-0.585C0.251333333333,-0.608333333333 0.268833333333,-0.626 0.2865,-0.638C0.304166666667,-0.65 0.32,-0.656 0.334,-0.656C0.344666666667,-0.656 0.353166666667,-0.6525 0.3595,-0.6455C0.365833333333,-0.6385 0.369,-0.628 0.369,-0.614C0.369,-0.603333333333 0.366666666667,-0.590166666667 0.362,-0.5745C0.357333333333,-0.558833333333 0.349333333333,-0.541333333333 0.338,-0.522C0.324666666667,-0.498 0.308833333333,-0.473333333333 0.2905,-0.448C0.272166666667,-0.422666666667 0.253166666667,-0.398666666667 0.2335,-0.376C0.213833333333,-0.353333333333 0.195166666667,-0.333833333333 0.1775,-0.3175C0.159833333333,-0.301166666667 0.145,-0.29 0.133,-0.284C0.131666666667,-0.280666666667 0.129,-0.273333333333 0.125,-0.262C0.121,-0.250666666667 0.116833333333,-0.238 0.1125,-0.224C0.108166666667,-0.21 0.104,-0.196666666667 0.1,-0.184C0.112,-0.201333333333 0.125833333333,-0.2185 0.1415,-0.2355C0.157166666667,-0.2525 0.173333333333,-0.267333333333 0.19,-0.28C0.207333333333,-0.293333333333 0.222833333333,-0.302833333333 0.2365,-0.3085C0.250166666667,-0.314166666667 0.262333333333,-0.317 0.273,-0.317C0.286333333333,-0.317 0.2965,-0.313333333333 0.3035,-0.306C0.3105,-0.298666666667 0.314,-0.29 0.314,-0.28C0.314,-0.268666666667 0.3095,-0.256666666667 0.3005,-0.244C0.2915,-0.231333333333 0.277333333333,-0.220666666667 0.258,-0.212C0.238666666667,-0.203333333333 0.214,-0.199 0.184,-0.199C0.178666666667,-0.180333333333 0.174166666667,-0.161166666667 0.1705,-0.1415C0.166833333333,-0.121833333333 0.165,-0.103333333333 0.165,-0.086C0.165,-0.066 0.167666666667,-0.049333333333 0.173,-0.036C0.178333333333,-0.022666666667 0.186666666667,-0.016 0.198,-0.016C0.209333333333,-0.016 0.223666666667,-0.023333333333 0.241,-0.038C0.260333333333,-0.055333333333 0.28,-0.080333333333 0.3,-0.113C0.32,-0.145666666667 0.338333333333,-0.178333333333 0.355,-0.211C0.356333333333,-0.212333333333 0.357333333333,-0.213 0.358,-0.213C0.36,-0.213 0.362166666667,-0.212 0.3645,-0.21C0.366833333333,-0.208 0.367333333333,-0.206333333333 0.366,-0.205C0.327333333333,-0.135666666667 0.2945,-0.083333333333 0.2675,-0.048C0.2405,-0.012666666667 0.214333333333,0.005 0.189,0.005ZM0.139,-0.305C0.157666666667,-0.316333333333 0.1785,-0.3345 0.2015,-0.3595C0.2245,-0.3845 0.247,-0.412666666667 0.269,-0.444C0.291,-0.475333333333 0.309,-0.505 0.323,-0.533C0.331666666667,-0.550333333333 0.337833333333,-0.565833333333 0.3415,-0.5795C0.345166666667,-0.593166666667 0.347,-0.605 0.347,-0.615C0.347,-0.633666666667 0.341666666667,-0.643 0.331,-0.643C0.323,-0.643 0.312833333333,-0.637 0.3005,-0.625C0.288166666667,-0.613 0.274333333333,-0.593333333333 0.259,-0.566C0.246333333333,-0.543333333333 0.2335,-0.5185 0.2205,-0.4915C0.2075,-0.4645 0.195333333333,-0.438166666667 0.184,-0.4125C0.172666666667,-0.386833333333 0.163,-0.364333333333 0.155,-0.345C0.147,-0.325666666667 0.141666666667,-0.312333333333 0.139,-0.305Z" style="fill:rgb(243,106,133);fill-rule:nonzero;"/>
            </g>
            <g transform="matrix(38.067416,0,0,38.067416,405.321714,47.375269)">
                <path d="M0.112,0.01C0.083333333333,0.01 0.063,0.000166666667 0.051,-0.0195C0.039,-0.039166666667 0.033,-0.061666666667 0.033,-0.087C0.033,-0.102333333333 0.034666666667,-0.117333333333 0.038,-0.132C0.041333333333,-0.146666666667 0.045333333333,-0.160333333333 0.05,-0.173C0.057333333333,-0.191 0.067833333333,-0.210166666667 0.0815,-0.2305C0.095166666667,-0.250833333333 0.111666666667,-0.268333333333 0.131,-0.283C0.150333333333,-0.297666666667 0.171333333333,-0.305 0.194,-0.305C0.212666666667,-0.305 0.225666666667,-0.299833333333 0.233,-0.2895C0.240333333333,-0.279166666667 0.244,-0.266333333333 0.244,-0.251L0.244,-0.2435C0.244,-0.241166666667 0.243666666667,-0.238333333333 0.243,-0.235C0.241,-0.217 0.234,-0.198333333333 0.222,-0.179C0.21,-0.159666666667 0.195,-0.1435 0.177,-0.1305C0.159,-0.1175 0.139666666667,-0.111 0.119,-0.111C0.107,-0.111 0.096333333333,-0.114333333333 0.087,-0.121C0.081,-0.098333333333 0.078,-0.077666666667 0.078,-0.059C0.078,-0.043666666667 0.080833333333,-0.031 0.0865,-0.021C0.092166666667,-0.011 0.101,-0.006 0.113,-0.006C0.127,-0.006 0.143833333333,-0.012166666667 0.1635,-0.0245C0.183166666667,-0.036833333333 0.2045,-0.058 0.2275,-0.088C0.2505,-0.118 0.274,-0.159 0.298,-0.211C0.298,-0.211666666667 0.298666666667,-0.212 0.3,-0.212C0.302,-0.212 0.304166666667,-0.211166666667 0.3065,-0.2095C0.308833333333,-0.207833333333 0.309333333333,-0.206333333333 0.308,-0.205C0.275333333333,-0.131 0.240833333333,-0.076666666667 0.2045,-0.042C0.168166666667,-0.007333333333 0.137333333333,0.01 0.112,0.01ZM0.114,-0.127C0.128666666667,-0.127 0.143,-0.1325 0.157,-0.1435C0.171,-0.1545 0.183666666667,-0.1685 0.195,-0.1855C0.206333333333,-0.2025 0.215333333333,-0.219666666667 0.222,-0.237C0.224666666667,-0.244333333333 0.226,-0.252666666667 0.226,-0.262C0.226,-0.270666666667 0.2245,-0.278166666667 0.2215,-0.2845C0.2185,-0.290833333333 0.213333333333,-0.294 0.206,-0.294C0.194,-0.294 0.181,-0.2865 0.167,-0.2715C0.153,-0.2565 0.14,-0.238833333333 0.128,-0.2185C0.116,-0.198166666667 0.107,-0.179666666667 0.101,-0.163C0.099,-0.158333333333 0.097166666667,-0.1535 0.0955,-0.1485C0.093833333333,-0.1435 0.092333333333,-0.138333333333 0.091,-0.133C0.099,-0.129 0.106666666667,-0.127 0.114,-0.127Z" style="fill:rgb(243,106,133);fill-rule:nonzero;"/>
            </g>
            <g transform="matrix(38.067416,0,0,38.067416,414.07722,47.375269)">
                <path d="M0.101,0.01C0.058333333333,0.01 0.029166666667,0.002333333333 0.0135,-0.013C-0.002166666667,-0.028333333333 -0.01,-0.045333333333 -0.01,-0.064C-0.01,-0.081333333333 -0.005666666667,-0.097166666667 0.003,-0.1115C0.011666666667,-0.125833333333 0.020333333333,-0.134333333333 0.029,-0.137C0.035,-0.147666666667 0.0415,-0.159333333333 0.0485,-0.172C0.0555,-0.184666666667 0.062,-0.197 0.068,-0.209C0.08,-0.233 0.092333333333,-0.255833333333 0.105,-0.2775C0.117666666667,-0.299166666667 0.1315,-0.316666666667 0.1465,-0.33C0.1615,-0.343333333333 0.177333333333,-0.35 0.194,-0.35C0.202,-0.35 0.210333333333,-0.348333333333 0.219,-0.345C0.227666666667,-0.341 0.232,-0.337 0.232,-0.333C0.232,-0.330333333333 0.230666666667,-0.328333333333 0.228,-0.327C0.225333333333,-0.325666666667 0.222333333333,-0.325333333333 0.219,-0.326C0.207,-0.329333333333 0.196,-0.326 0.186,-0.316C0.176,-0.306 0.171,-0.292333333333 0.171,-0.275C0.171,-0.272333333333 0.171166666667,-0.2695 0.1715,-0.2665C0.171833333333,-0.2635 0.172333333333,-0.260333333333 0.173,-0.257C0.177,-0.241 0.181166666667,-0.222666666667 0.1855,-0.202C0.189833333333,-0.181333333333 0.192,-0.160333333333 0.192,-0.139C0.192,-0.131 0.191666666667,-0.123 0.191,-0.115C0.190333333333,-0.107 0.188666666667,-0.099333333333 0.186,-0.092C0.177333333333,-0.067333333333 0.1655,-0.047833333333 0.1505,-0.0335C0.1355,-0.019166666667 0.117333333333,-0.008666666667 0.096,-0.002C0.112,-0.001333333333 0.128833333333,-0.002833333333 0.1465,-0.0065C0.164166666667,-0.010166666667 0.179333333333,-0.015666666667 0.192,-0.023C0.214,-0.035666666667 0.2335,-0.053 0.2505,-0.075C0.2675,-0.097 0.282666666667,-0.120166666667 0.296,-0.1445C0.309333333333,-0.168833333333 0.321333333333,-0.191 0.332,-0.211C0.332666666667,-0.213666666667 0.334666666667,-0.215 0.338,-0.215C0.34,-0.215 0.341666666667,-0.214166666667 0.343,-0.2125C0.344333333333,-0.210833333333 0.344333333333,-0.209 0.343,-0.207C0.329666666667,-0.182333333333 0.316,-0.1575 0.302,-0.1325C0.288,-0.1075 0.272333333333,-0.0845 0.255,-0.0635C0.237666666667,-0.0425 0.217,-0.025333333333 0.193,-0.012C0.167,0.002666666667 0.136333333333,0.01 0.101,0.01ZM0.06,-0.007C0.073333333333,-0.007 0.087,-0.011333333333 0.101,-0.02C0.115,-0.028666666667 0.125,-0.041333333333 0.131,-0.058C0.138333333333,-0.078666666667 0.142833333333,-0.101833333333 0.1445,-0.1275C0.146166666667,-0.153166666667 0.147,-0.177333333333 0.147,-0.2C0.147,-0.222666666667 0.147333333333,-0.24 0.148,-0.252C0.149333333333,-0.270666666667 0.154333333333,-0.288166666667 0.163,-0.3045C0.171666666667,-0.320833333333 0.186333333333,-0.330666666667 0.207,-0.334C0.202333333333,-0.336666666667 0.197666666667,-0.338 0.193,-0.338C0.181666666667,-0.338 0.17,-0.333 0.158,-0.323C0.146,-0.313 0.137,-0.304 0.131,-0.296C0.121666666667,-0.283333333333 0.112666666667,-0.268333333333 0.104,-0.251C0.095333333333,-0.233666666667 0.085666666667,-0.215333333333 0.075,-0.196L0.045,-0.142C0.047,-0.142666666667 0.05,-0.143 0.054,-0.143C0.064666666667,-0.143 0.0715,-0.14 0.0745,-0.134C0.0775,-0.128 0.078333333333,-0.123666666667 0.077,-0.121C0.075,-0.121666666667 0.073166666667,-0.122166666667 0.0715,-0.1225C0.069833333333,-0.122833333333 0.068333333333,-0.123 0.067,-0.123C0.055666666667,-0.123 0.045833333333,-0.118333333333 0.0375,-0.109C0.029166666667,-0.099666666667 0.023333333333,-0.089333333333 0.02,-0.078C0.018666666667,-0.073333333333 0.017666666667,-0.068833333333 0.017,-0.0645C0.016333333333,-0.060166666667 0.016,-0.056333333333 0.016,-0.053C0.016,-0.037 0.020333333333,-0.025333333333 0.029,-0.018C0.037666666667,-0.010666666667 0.048,-0.007 0.06,-0.007Z" style="fill:rgb(243,106,133);fill-rule:nonzero;"/>
            </g>
            <g transform="matrix(38.067416,0,0,38.067416,424.08895,47.375269)">
                <path d="M0.114,0.017C0.104666666667,0.017 0.095833333333,0.013666666667 0.0875,0.007C0.079166666667,0.000333333333 0.075,-0.009 0.075,-0.021C0.075,-0.034333333333 0.078833333333,-0.043833333333 0.0865,-0.0495C0.094166666667,-0.055166666667 0.102333333333,-0.058 0.111,-0.058C0.121,-0.058 0.13,-0.055 0.138,-0.049C0.146,-0.043 0.15,-0.034 0.15,-0.022C0.15,-0.009333333333 0.146333333333,0.000333333333 0.139,0.007C0.131666666667,0.013666666667 0.123333333333,0.017 0.114,0.017Z" style="fill:rgb(243,106,133);fill-rule:nonzero;"/>
            </g>
            <g transform="matrix(38.067416,0,0,38.067416,432.654119,47.375269)">
                <path d="M0.113,0.01C0.084333333333,0.01 0.064,0.000166666667 0.052,-0.0195C0.04,-0.039166666667 0.034,-0.061666666667 0.034,-0.087C0.034,-0.102333333333 0.035666666667,-0.117333333333 0.039,-0.132C0.042333333333,-0.146666666667 0.046333333333,-0.160333333333 0.051,-0.173C0.058333333333,-0.191 0.068166666667,-0.210166666667 0.0805,-0.2305C0.092833333333,-0.250833333333 0.107833333333,-0.268333333333 0.1255,-0.283C0.143166666667,-0.297666666667 0.163666666667,-0.305 0.187,-0.305C0.207666666667,-0.305 0.222833333333,-0.299166666667 0.2325,-0.2875C0.242166666667,-0.275833333333 0.247,-0.261333333333 0.247,-0.244C0.247,-0.223333333333 0.2425,-0.207666666667 0.2335,-0.197C0.2245,-0.186333333333 0.216333333333,-0.181 0.209,-0.181C0.199666666667,-0.181 0.195,-0.186666666667 0.195,-0.198C0.195,-0.205333333333 0.197333333333,-0.214 0.202,-0.224C0.210666666667,-0.242666666667 0.215,-0.258333333333 0.215,-0.271C0.215,-0.287 0.207666666667,-0.295 0.193,-0.295C0.180333333333,-0.295 0.168,-0.287333333333 0.156,-0.272C0.144,-0.256666666667 0.1335,-0.238666666667 0.1245,-0.218C0.1155,-0.197333333333 0.108,-0.179 0.102,-0.163C0.095333333333,-0.144333333333 0.089833333333,-0.126 0.0855,-0.108C0.081166666667,-0.09 0.079,-0.073666666667 0.079,-0.059C0.079,-0.043666666667 0.081833333333,-0.031 0.0875,-0.021C0.093166666667,-0.011 0.102,-0.006 0.114,-0.006C0.128,-0.006 0.144833333333,-0.012166666667 0.1645,-0.0245C0.184166666667,-0.036833333333 0.2055,-0.058 0.2285,-0.088C0.2515,-0.118 0.275,-0.159 0.299,-0.211C0.299,-0.211666666667 0.299666666667,-0.212 0.301,-0.212C0.303,-0.212 0.305166666667,-0.211166666667 0.3075,-0.2095C0.309833333333,-0.207833333333 0.310333333333,-0.206333333333 0.309,-0.205C0.276333333333,-0.131 0.241833333333,-0.076666666667 0.2055,-0.042C0.169166666667,-0.007333333333 0.138333333333,0.01 0.113,0.01Z" style="fill:rgb(243,106,133);fill-rule:nonzero;"/>
            </g>
            <g transform="matrix(38.067416,0,0,38.067416,441.447692,47.375269)">
                <path d="M0.078,0.005C0.056,0.005 0.040833333333,-0.001166666667 0.0325,-0.0135C0.024166666667,-0.025833333333 0.02,-0.041 0.02,-0.059C0.02,-0.078333333333 0.023333333333,-0.098833333333 0.03,-0.1205C0.036666666667,-0.142166666667 0.043,-0.159666666667 0.049,-0.173C0.067,-0.215 0.089666666667,-0.247833333333 0.117,-0.2715C0.144333333333,-0.295166666667 0.169333333333,-0.307 0.192,-0.307C0.211333333333,-0.307 0.2245,-0.301333333333 0.2315,-0.29C0.2385,-0.278666666667 0.242,-0.264666666667 0.242,-0.248C0.242,-0.230666666667 0.239166666667,-0.2125 0.2335,-0.1935C0.227833333333,-0.1745 0.221666666667,-0.158333333333 0.215,-0.145C0.207,-0.128333333333 0.198666666667,-0.112666666667 0.19,-0.098C0.181333333333,-0.083333333333 0.172333333333,-0.07 0.163,-0.058C0.169,-0.052666666667 0.176333333333,-0.05 0.185,-0.05C0.198333333333,-0.05 0.2115,-0.056333333333 0.2245,-0.069C0.2375,-0.081666666667 0.249833333333,-0.097333333333 0.2615,-0.116C0.273166666667,-0.134666666667 0.2835,-0.152666666667 0.2925,-0.17C0.3015,-0.187333333333 0.308333333333,-0.200333333333 0.313,-0.209C0.314333333333,-0.211 0.315666666667,-0.212 0.317,-0.212C0.318333333333,-0.212 0.319666666667,-0.210833333333 0.321,-0.2085C0.322333333333,-0.206166666667 0.322333333333,-0.203666666667 0.321,-0.201C0.310333333333,-0.178333333333 0.297166666667,-0.153 0.2815,-0.125C0.265833333333,-0.097 0.248333333333,-0.074 0.229,-0.056C0.221,-0.048666666667 0.213333333333,-0.043333333333 0.206,-0.04C0.198666666667,-0.036666666667 0.192,-0.035 0.186,-0.035C0.174666666667,-0.035 0.164666666667,-0.039333333333 0.156,-0.048C0.143333333333,-0.031333333333 0.130333333333,-0.018333333333 0.117,-0.009C0.103666666667,0.000333333333 0.090666666667,0.005 0.078,0.005ZM0.09,-0.01C0.097333333333,-0.01 0.106,-0.0145 0.116,-0.0235C0.126,-0.0325 0.136333333333,-0.044333333333 0.147,-0.059C0.147,-0.059 0.145166666667,-0.062333333333 0.1415,-0.069C0.137833333333,-0.075666666667 0.136,-0.085666666667 0.136,-0.099C0.136,-0.104333333333 0.136333333333,-0.110166666667 0.137,-0.1165C0.137666666667,-0.122833333333 0.139333333333,-0.129333333333 0.142,-0.136C0.146666666667,-0.149333333333 0.152333333333,-0.159166666667 0.159,-0.1655C0.165666666667,-0.171833333333 0.172333333333,-0.175 0.179,-0.175C0.185,-0.175 0.189833333333,-0.172166666667 0.1935,-0.1665C0.197166666667,-0.160833333333 0.198,-0.152666666667 0.196,-0.142C0.205333333333,-0.162666666667 0.213,-0.182833333333 0.219,-0.2025C0.225,-0.222166666667 0.228,-0.239333333333 0.228,-0.254C0.228,-0.265333333333 0.225833333333,-0.2745 0.2215,-0.2815C0.217166666667,-0.2885 0.209666666667,-0.292 0.199,-0.292C0.189666666667,-0.292 0.179,-0.286166666667 0.167,-0.2745C0.155,-0.262833333333 0.142833333333,-0.2475 0.1305,-0.2285C0.118166666667,-0.2095 0.106833333333,-0.189 0.0965,-0.167C0.086166666667,-0.145 0.077833333333,-0.1235 0.0715,-0.1025C0.065166666667,-0.0815 0.062,-0.063333333333 0.062,-0.048C0.062,-0.036666666667 0.064166666667,-0.0275 0.0685,-0.0205C0.072833333333,-0.0135 0.08,-0.01 0.09,-0.01Z" style="fill:rgb(243,106,133);fill-rule:nonzero;"/>
            </g>
            <g transform="matrix(38.067416,0,0,38.067416,450.888411,47.375269)">
                <path d="M0.376,0.005C0.348,0.005 0.334,-0.011 0.334,-0.043C0.334,-0.068333333333 0.343333333333,-0.100666666667 0.362,-0.14C0.368,-0.151333333333 0.3755,-0.164833333333 0.3845,-0.1805C0.3935,-0.196166666667 0.401666666667,-0.211666666667 0.409,-0.227C0.416333333333,-0.242333333333 0.42,-0.254333333333 0.42,-0.263C0.42,-0.271666666667 0.415333333333,-0.276 0.406,-0.276C0.393333333333,-0.276 0.380166666667,-0.269166666667 0.3665,-0.2555C0.352833333333,-0.241833333333 0.339333333333,-0.224333333333 0.326,-0.203C0.312666666667,-0.181666666667 0.3,-0.159333333333 0.288,-0.136C0.276,-0.112666666667 0.265666666667,-0.090833333333 0.257,-0.0705C0.248333333333,-0.050166666667 0.242,-0.034666666667 0.238,-0.024C0.234,-0.014 0.228333333333,-0.007666666667 0.221,-0.005C0.213666666667,-0.002333333333 0.205833333333,-0.001 0.1975,-0.001C0.189166666667,-0.001 0.181333333333,0.000333333333 0.174,0.003C0.183333333333,-0.018333333333 0.191,-0.035666666667 0.197,-0.049C0.203,-0.062333333333 0.209166666667,-0.076 0.2155,-0.09C0.221833333333,-0.104 0.23,-0.122333333333 0.24,-0.145C0.245333333333,-0.156333333333 0.251666666667,-0.169333333333 0.259,-0.184C0.266333333333,-0.198666666667 0.273,-0.213 0.279,-0.227C0.285,-0.241 0.288,-0.252333333333 0.288,-0.261C0.288,-0.271 0.283,-0.276 0.273,-0.276C0.260333333333,-0.276 0.247166666667,-0.269166666667 0.2335,-0.2555C0.219833333333,-0.241833333333 0.206333333333,-0.224333333333 0.193,-0.203C0.179666666667,-0.181666666667 0.167,-0.159333333333 0.155,-0.136C0.143,-0.112666666667 0.132666666667,-0.090833333333 0.124,-0.0705C0.115333333333,-0.050166666667 0.109,-0.034666666667 0.105,-0.024C0.101,-0.014 0.095333333333,-0.007666666667 0.088,-0.005C0.080666666667,-0.002333333333 0.072833333333,-0.001 0.0645,-0.001C0.056166666667,-0.001 0.048333333333,0.000333333333 0.041,0.003C0.050333333333,-0.018333333333 0.058,-0.035666666667 0.064,-0.049C0.07,-0.062333333333 0.076333333333,-0.075833333333 0.083,-0.0895C0.089666666667,-0.103166666667 0.097666666667,-0.121666666667 0.107,-0.145C0.112333333333,-0.157 0.118333333333,-0.170833333333 0.125,-0.1865C0.131666666667,-0.202166666667 0.1375,-0.2175 0.1425,-0.2325C0.1475,-0.2475 0.15,-0.259333333333 0.15,-0.268C0.15,-0.278 0.146666666667,-0.283 0.14,-0.283C0.132,-0.283 0.124,-0.278 0.116,-0.268C0.108,-0.258 0.100833333333,-0.246833333333 0.0945,-0.2345C0.088166666667,-0.222166666667 0.083,-0.212333333333 0.079,-0.205C0.071,-0.189666666667 0.061833333333,-0.172833333333 0.0515,-0.1545C0.041166666667,-0.136166666667 0.031,-0.119 0.021,-0.103C0.020333333333,-0.101 0.018666666667,-0.1 0.016,-0.1C0.014,-0.1 0.012333333333,-0.100666666667 0.011,-0.102C0.009666666667,-0.103333333333 0.009666666667,-0.105333333333 0.011,-0.108C0.021666666667,-0.124666666667 0.031833333333,-0.142166666667 0.0415,-0.1605C0.051166666667,-0.178833333333 0.059666666667,-0.195333333333 0.067,-0.21C0.074333333333,-0.224 0.082166666667,-0.2385 0.0905,-0.2535C0.098833333333,-0.2685 0.108666666667,-0.281166666667 0.12,-0.2915C0.131333333333,-0.301833333333 0.144333333333,-0.307 0.159,-0.307C0.165666666667,-0.307 0.173333333333,-0.305333333333 0.182,-0.302C0.191333333333,-0.298 0.196,-0.289 0.196,-0.275C0.196,-0.267666666667 0.194666666667,-0.258666666667 0.192,-0.248C0.189333333333,-0.237333333333 0.185666666667,-0.225333333333 0.181,-0.212C0.198333333333,-0.236666666667 0.216666666667,-0.257833333333 0.236,-0.2755C0.255333333333,-0.293166666667 0.273,-0.302 0.289,-0.302C0.315,-0.302 0.328,-0.289666666667 0.328,-0.265C0.328,-0.252333333333 0.323333333333,-0.234666666667 0.314,-0.212C0.331333333333,-0.236666666667 0.349666666667,-0.257833333333 0.369,-0.2755C0.388333333333,-0.293166666667 0.406,-0.302 0.422,-0.302C0.446,-0.302 0.458,-0.291 0.458,-0.269C0.458,-0.255666666667 0.454333333333,-0.238666666667 0.447,-0.218C0.439666666667,-0.197333333333 0.430333333333,-0.173333333333 0.419,-0.146C0.407,-0.118 0.398166666667,-0.0945 0.3925,-0.0755C0.386833333333,-0.0565 0.384,-0.041666666667 0.384,-0.031C0.384,-0.018333333333 0.388333333333,-0.012 0.397,-0.012C0.406333333333,-0.012 0.421333333333,-0.020666666667 0.442,-0.038C0.461333333333,-0.055333333333 0.479333333333,-0.077166666667 0.496,-0.1035C0.512666666667,-0.129833333333 0.533,-0.165666666667 0.557,-0.211C0.557,-0.212333333333 0.557666666667,-0.213 0.559,-0.213C0.561,-0.213 0.563,-0.212 0.565,-0.21C0.567,-0.208 0.567333333333,-0.206333333333 0.566,-0.205C0.530666666667,-0.134333333333 0.499,-0.081666666667 0.471,-0.047C0.443,-0.012333333333 0.411333333333,0.005 0.376,0.005Z" style="fill:rgb(243,106,133);fill-rule:nonzero;"/>
            </g>
        </g>
    </g>
</svg>
